<svg width="29" height="22" viewBox="0 0 29 22" fill="none" xmlns="http://www.w3.org/2000/svg">
<path d="M2.67374 21.5028H7.12829V10.6846L0.764648 5.91187V19.5937C0.764648 20.6501 1.62056 21.5028 2.67374 21.5028Z" fill="#4285F4"/>
<path d="M22.401 21.5028H26.8555C27.912 21.5028 28.7646 20.6469 28.7646 19.5937V5.91187L22.401 10.6846" fill="#34A853"/>
<path d="M22.401 2.41183V10.6846L28.7646 5.91184V3.36638C28.7646 1.00546 26.0697 -0.340454 24.1829 1.07546" fill="#FBBC04"/>
<path d="M7.1283 10.6846V2.41187L14.7647 8.13914L22.401 2.41187V10.6846L14.7647 16.4119" fill="#EA4335"/>
<path d="M0.764648 3.36638V5.91184L7.12829 10.6846V2.41183L5.34648 1.07546C3.45648 -0.340454 0.764648 1.00546 0.764648 3.36638Z" fill="#C5221F"/>
</svg>
